<svg version="1.1" viewBox="8.32 10.56 80.60000000000001 75.4" xmlns:xlink="http://www.w3.org/1999/xlink" xmlns="http://www.w3.org/2000/svg" style="max-height: 500px" width="80.60000000000001" height="75.4">
<g id="surface1">
<path d="M 34.773438 14.25 L 63.507812 14.25 C 64.285156 14.25 64.917969 14.878906 64.917969 15.660156 C 64.917969 16.4375 64.285156 17.066406 63.507812 17.066406 L 34.773438 17.066406 C 33.992188 17.066406 33.363281 16.4375 33.363281 15.660156 C 33.363281 14.878906 33.992188 14.25 34.773438 14.25 Z M 34.773438 14.25" style="stroke:none;fill-rule:nonzero;fill:rgb(41.176471%,41.176471%,41.176471%);fill-opacity:1;"/>
<path d="M 35.023438 11.398438 L 40.800781 11.398438 L 40.800781 12.734375 L 35.023438 12.734375 Z M 35.023438 11.398438" style="stroke:none;fill-rule:nonzero;fill:rgb(0%,62.352941%,89.019608%);fill-opacity:1;"/>
<path d="M 42.578125 11.398438 L 48.355469 11.398438 L 48.355469 12.734375 L 42.578125 12.734375 Z M 42.578125 11.398438" style="stroke:none;fill-rule:nonzero;fill:rgb(78.039216%,82.745098%,0.784314%);fill-opacity:1;"/>
<path d="M 50.035156 11.398438 L 55.8125 11.398438 L 55.8125 12.734375 L 50.035156 12.734375 Z M 50.035156 11.398438" style="stroke:none;fill-rule:nonzero;fill:rgb(94.117647%,49.411765%,8.627451%);fill-opacity:1;"/>
<path d="M 57.457031 11.398438 L 63.234375 11.398438 L 63.234375 12.734375 L 57.457031 12.734375 Z M 57.457031 11.398438" style="stroke:none;fill-rule:nonzero;fill:rgb(87.45098%,15.686275%,8.235294%);fill-opacity:1;"/>
<path d="M 57.457031 18.535156 L 63.234375 18.535156 L 63.234375 28.300781 L 57.457031 28.300781 Z M 57.457031 18.535156" style="stroke:none;fill-rule:nonzero;fill:rgb(87.45098%,15.686275%,8.235294%);fill-opacity:1;"/>
<path d="M 50.035156 18.535156 L 55.820312 18.535156 L 55.820312 34.398438 L 50.035156 34.398438 Z M 50.035156 18.535156" style="stroke:none;fill-rule:nonzero;fill:rgb(94.117647%,49.411765%,8.627451%);fill-opacity:1;"/>
<path d="M 42.578125 18.535156 L 48.355469 18.535156 L 48.355469 42.300781 L 42.578125 42.300781 Z M 42.578125 18.535156" style="stroke:none;fill-rule:nonzero;fill:rgb(78.039216%,82.745098%,0.784314%);fill-opacity:1;"/>
<path d="M 35.023438 18.535156 L 40.800781 18.535156 L 40.800781 47.5 L 35.023438 47.5 Z M 35.023438 18.535156" style="stroke:none;fill-rule:nonzero;fill:rgb(0%,62.352941%,89.019608%);fill-opacity:1;"/>
<path d="M 16.863281 78.257812 C 16.292969 78.257812 15.777344 78.195312 15.3125 78.066406 C 14.851562 77.941406 14.433594 77.777344 14.0625 77.566406 C 13.6875 77.359375 13.359375 77.117188 13.074219 76.835938 C 12.792969 76.558594 12.539062 76.261719 12.316406 75.953125 L 12.140625 75.953125 C 12.171875 76.28125 12.199219 76.59375 12.230469 76.894531 C 12.246094 77.144531 12.265625 77.402344 12.285156 77.667969 C 12.304688 77.933594 12.316406 78.144531 12.316406 78.300781 L 12.316406 85.09375 L 9.679688 85.09375 L 9.679688 62.0625 L 11.824219 62.0625 L 12.199219 64.207031 L 12.316406 64.207031 C 12.539062 63.867188 12.789062 63.550781 13.070312 63.257812 C 13.347656 62.960938 13.675781 62.707031 14.046875 62.488281 C 14.417969 62.269531 14.835938 62.097656 15.300781 61.96875 C 15.761719 61.835938 16.285156 61.773438 16.863281 61.773438 C 17.773438 61.773438 18.597656 61.945312 19.339844 62.292969 C 20.085938 62.640625 20.71875 63.160156 21.246094 63.851562 C 21.773438 64.539062 22.179688 65.398438 22.46875 66.421875 C 22.757812 67.445312 22.90625 68.632812 22.90625 69.984375 C 22.90625 71.347656 22.757812 72.542969 22.46875 73.570312 C 22.179688 74.597656 21.773438 75.460938 21.246094 76.15625 C 20.71875 76.851562 20.085938 77.375 19.339844 77.726562 C 18.597656 78.082031 17.773438 78.257812 16.863281 78.257812 Z M 16.355469 63.960938 C 15.621094 63.960938 15.003906 64.070312 14.496094 64.292969 C 13.988281 64.515625 13.578125 64.851562 13.265625 65.304688 C 12.949219 65.761719 12.71875 66.324219 12.570312 67 C 12.417969 67.675781 12.335938 68.472656 12.316406 69.390625 L 12.316406 69.984375 C 12.316406 70.960938 12.378906 71.828125 12.511719 72.585938 C 12.640625 73.34375 12.863281 73.980469 13.175781 74.496094 C 13.492188 75.015625 13.910156 75.40625 14.429688 75.671875 C 14.953125 75.9375 15.605469 76.070312 16.386719 76.070312 C 17.691406 76.070312 18.648438 75.542969 19.261719 74.488281 C 19.875 73.4375 20.179688 71.925781 20.179688 69.957031 C 20.179688 67.949219 19.875 66.445312 19.261719 65.449219 C 18.648438 64.457031 17.679688 63.960938 16.355469 63.960938 Z M 16.355469 63.960938" style="stroke:none;fill-rule:nonzero;fill:rgb(41.176471%,41.176471%,41.176471%);fill-opacity:1;"/>
<path d="M 24.6875 62.0625 L 27.425781 62.0625 L 30.539062 70.941406 C 30.671875 71.328125 30.8125 71.734375 30.953125 72.15625 C 31.089844 72.582031 31.222656 73.007812 31.34375 73.433594 C 31.464844 73.859375 31.566406 74.269531 31.652344 74.664062 C 31.742188 75.058594 31.804688 75.425781 31.84375 75.765625 L 31.929688 75.765625 C 31.976562 75.523438 32.054688 75.195312 32.160156 74.78125 C 32.265625 74.363281 32.386719 73.921875 32.515625 73.453125 C 32.644531 72.984375 32.78125 72.523438 32.921875 72.070312 C 33.0625 71.617188 33.183594 71.230469 33.289062 70.914062 L 36.171875 62.0625 L 38.898438 62.0625 L 32.609375 80.039062 C 32.339844 80.820312 32.046875 81.523438 31.734375 82.144531 C 31.417969 82.769531 31.054688 83.296875 30.640625 83.730469 C 30.222656 84.167969 29.738281 84.503906 29.175781 84.738281 C 28.617188 84.976562 27.949219 85.09375 27.175781 85.09375 C 26.675781 85.09375 26.242188 85.066406 25.875 85.015625 C 25.507812 84.960938 25.191406 84.90625 24.933594 84.847656 L 24.933594 82.746094 C 25.136719 82.796875 25.390625 82.835938 25.699219 82.871094 C 26.007812 82.902344 26.332031 82.921875 26.671875 82.921875 C 27.132812 82.921875 27.535156 82.867188 27.875 82.753906 C 28.210938 82.644531 28.503906 82.480469 28.757812 82.269531 C 29.007812 82.054688 29.222656 81.796875 29.402344 81.488281 C 29.578125 81.175781 29.742188 80.824219 29.886719 80.429688 L 30.710938 78.113281 Z M 24.6875 62.0625" style="stroke:none;fill-rule:nonzero;fill:rgb(41.176471%,41.176471%,41.176471%);fill-opacity:1;"/>
<path d="M 46.371094 76.097656 C 46.546875 76.097656 46.742188 76.089844 46.957031 76.070312 C 47.175781 76.050781 47.386719 76.027344 47.589844 75.996094 C 47.789062 75.96875 47.976562 75.933594 48.144531 75.894531 C 48.316406 75.855469 48.441406 75.824219 48.53125 75.792969 L 48.53125 77.792969 C 48.402344 77.851562 48.246094 77.910156 48.050781 77.964844 C 47.859375 78.023438 47.644531 78.074219 47.414062 78.117188 C 47.183594 78.164062 46.941406 78.195312 46.691406 78.21875 C 46.4375 78.246094 46.191406 78.257812 45.949219 78.257812 C 45.351562 78.257812 44.796875 78.179688 44.285156 78.023438 C 43.773438 77.871094 43.332031 77.605469 42.960938 77.226562 C 42.589844 76.851562 42.296875 76.34375 42.082031 75.699219 C 41.871094 75.058594 41.765625 74.25 41.765625 73.273438 L 41.765625 64.046875 L 39.519531 64.046875 L 39.519531 62.871094 L 41.765625 61.742188 L 42.894531 58.410156 L 44.414062 58.410156 L 44.414062 62.0625 L 48.414062 62.0625 L 48.414062 64.046875 L 44.414062 64.046875 L 44.414062 73.273438 C 44.414062 74.210938 44.566406 74.914062 44.871094 75.386719 C 45.175781 75.863281 45.675781 76.097656 46.371094 76.097656 Z M 46.371094 76.097656" style="stroke:none;fill-rule:nonzero;fill:rgb(0%,62.352941%,89.019608%);fill-opacity:1;"/>
<path d="M 57.902344 78.257812 C 56.839844 78.257812 55.867188 78.078125 54.988281 77.71875 C 54.113281 77.363281 53.355469 76.839844 52.722656 76.15625 C 52.089844 75.46875 51.601562 74.621094 51.253906 73.605469 C 50.90625 72.59375 50.730469 71.433594 50.730469 70.128906 C 50.730469 68.816406 50.890625 67.644531 51.210938 66.609375 C 51.527344 65.578125 51.976562 64.699219 52.554688 63.980469 C 53.136719 63.261719 53.828125 62.714844 54.636719 62.335938 C 55.441406 61.960938 56.332031 61.773438 57.308594 61.773438 C 58.265625 61.773438 59.125 61.941406 59.886719 62.285156 C 60.648438 62.628906 61.296875 63.113281 61.828125 63.734375 C 62.359375 64.355469 62.765625 65.105469 63.050781 65.980469 C 63.335938 66.855469 63.480469 67.820312 63.480469 68.882812 L 63.480469 70.519531 L 53.453125 70.519531 C 53.503906 72.386719 53.898438 73.757812 54.636719 74.636719 C 55.375 75.515625 56.472656 75.953125 57.929688 75.953125 C 58.421875 75.953125 58.878906 75.929688 59.300781 75.878906 C 59.71875 75.832031 60.125 75.761719 60.515625 75.671875 C 60.90625 75.578125 61.285156 75.464844 61.652344 75.324219 C 62.019531 75.183594 62.390625 75.027344 62.769531 74.851562 L 62.769531 77.199219 C 62.382812 77.382812 62.003906 77.542969 61.632812 77.675781 C 61.261719 77.8125 60.878906 77.921875 60.488281 78.011719 C 60.097656 78.097656 59.691406 78.160156 59.269531 78.199219 C 58.851562 78.238281 58.394531 78.257812 57.902344 78.257812 Z M 57.25 63.960938 C 56.148438 63.960938 55.277344 64.335938 54.636719 65.089844 C 53.992188 65.84375 53.617188 66.9375 53.511719 68.378906 L 60.640625 68.378906 C 60.640625 67.71875 60.574219 67.121094 60.445312 66.574219 C 60.3125 66.027344 60.109375 65.5625 59.835938 65.175781 C 59.558594 64.789062 59.210938 64.488281 58.785156 64.277344 C 58.359375 64.066406 57.847656 63.960938 57.25 63.960938 Z M 57.25 63.960938" style="stroke:none;fill-rule:nonzero;fill:rgb(0%,62.352941%,89.019608%);fill-opacity:1;"/>
<path d="M 77.007812 73.605469 C 77.007812 74.378906 76.867188 75.054688 76.589844 75.632812 C 76.308594 76.214844 75.90625 76.699219 75.378906 77.089844 C 74.851562 77.480469 74.21875 77.773438 73.472656 77.964844 C 72.730469 78.160156 71.894531 78.257812 70.96875 78.257812 C 69.914062 78.257812 69.011719 78.171875 68.257812 78.003906 C 67.503906 77.832031 66.84375 77.585938 66.273438 77.257812 L 66.273438 74.851562 C 66.574219 75.007812 66.90625 75.160156 67.273438 75.308594 C 67.640625 75.457031 68.027344 75.589844 68.433594 75.707031 C 68.839844 75.824219 69.257812 75.917969 69.6875 75.988281 C 70.117188 76.0625 70.542969 76.097656 70.96875 76.097656 C 71.59375 76.097656 72.128906 76.042969 72.570312 75.9375 C 73.007812 75.832031 73.367188 75.679688 73.640625 75.480469 C 73.914062 75.285156 74.117188 75.042969 74.242188 74.757812 C 74.367188 74.472656 74.429688 74.15625 74.429688 73.808594 C 74.429688 73.511719 74.382812 73.238281 74.285156 73 C 74.1875 72.757812 74.011719 72.519531 73.757812 72.28125 C 73.5 72.042969 73.152344 71.804688 72.707031 71.5625 C 72.261719 71.324219 71.691406 71.050781 70.996094 70.753906 C 70.300781 70.453125 69.675781 70.160156 69.121094 69.871094 C 68.566406 69.578125 68.09375 69.257812 67.707031 68.898438 C 67.324219 68.542969 67.023438 68.128906 66.816406 67.660156 C 66.609375 67.191406 66.507812 66.632812 66.507812 65.988281 C 66.507812 65.3125 66.640625 64.710938 66.90625 64.183594 C 67.171875 63.65625 67.542969 63.214844 68.027344 62.859375 C 68.511719 62.5 69.089844 62.230469 69.765625 62.046875 C 70.441406 61.863281 71.195312 61.773438 72.023438 61.773438 C 72.960938 61.773438 73.820312 61.875 74.597656 62.074219 C 75.375 62.277344 76.109375 62.542969 76.804688 62.871094 L 75.894531 65.003906 C 75.265625 64.722656 74.621094 64.476562 73.960938 64.269531 C 73.296875 64.0625 72.625 63.960938 71.9375 63.960938 C 70.953125 63.960938 70.222656 64.121094 69.75 64.445312 C 69.277344 64.769531 69.042969 65.230469 69.042969 65.828125 C 69.042969 66.164062 69.097656 66.460938 69.207031 66.710938 C 69.320312 66.960938 69.507812 67.199219 69.78125 67.421875 C 70.050781 67.644531 70.414062 67.867188 70.867188 68.09375 C 71.320312 68.320312 71.886719 68.574219 72.5625 68.855469 C 73.257812 69.144531 73.878906 69.433594 74.421875 69.722656 C 74.96875 70.015625 75.433594 70.339844 75.820312 70.703125 C 76.207031 71.0625 76.5 71.476562 76.703125 71.941406 C 76.90625 72.402344 77.007812 72.960938 77.007812 73.605469 Z M 77.007812 73.605469" style="stroke:none;fill-rule:nonzero;fill:rgb(0%,62.352941%,89.019608%);fill-opacity:1;"/>
<path d="M 85.683594 76.097656 C 85.859375 76.097656 86.054688 76.089844 86.273438 76.070312 C 86.488281 76.050781 86.699219 76.027344 86.902344 75.996094 C 87.105469 75.96875 87.289062 75.933594 87.460938 75.894531 C 87.628906 75.855469 87.757812 75.824219 87.84375 75.792969 L 87.84375 77.792969 C 87.71875 77.851562 87.558594 77.910156 87.367188 77.964844 C 87.171875 78.023438 86.960938 78.074219 86.726562 78.117188 C 86.496094 78.164062 86.253906 78.195312 86.003906 78.21875 C 85.753906 78.246094 85.507812 78.257812 85.265625 78.257812 C 84.667969 78.257812 84.109375 78.179688 83.597656 78.023438 C 83.085938 77.871094 82.644531 77.605469 82.273438 77.226562 C 81.902344 76.851562 81.609375 76.34375 81.398438 75.699219 C 81.183594 75.058594 81.078125 74.25 81.078125 73.273438 L 81.078125 64.046875 L 78.832031 64.046875 L 78.832031 62.871094 L 81.078125 61.742188 L 82.207031 58.410156 L 83.730469 58.410156 L 83.730469 62.0625 L 87.726562 62.0625 L 87.726562 64.046875 L 83.730469 64.046875 L 83.730469 73.273438 C 83.730469 74.210938 83.882812 74.914062 84.1875 75.386719 C 84.492188 75.863281 84.988281 76.097656 85.683594 76.097656 Z M 85.683594 76.097656" style="stroke:none;fill-rule:nonzero;fill:rgb(0%,62.352941%,89.019608%);fill-opacity:1;"/>
</g>
</svg>