<?xml version="1.0" encoding="UTF-8"?>
<svg xmlns="http://www.w3.org/2000/svg" xmlns:xlink="http://www.w3.org/1999/xlink" width="138px" height="100px" viewBox="0 0 138 100" version="1.1">
<g id="surface1">
<path style=" stroke:none;fill-rule:nonzero;fill:rgb(7.45098%,2.745098%,32.941176%);fill-opacity:1;" d="M 13.199219 90.859375 C 10.609375 90.859375 7.980469 89.785156 6.328125 87.683594 L 6.328125 99.046875 L 1.148438 99.046875 L 1.148438 70.996094 L 5.832031 70.996094 L 6.015625 74.070312 C 7.625 71.699219 10.480469 70.449219 13.203125 70.449219 C 18.417969 70.449219 22.265625 74.835938 22.265625 80.652344 C 22.265625 86.472656 18.417969 90.863281 13.199219 90.859375 Z M 11.59375 74.308594 C 8.574219 74.308594 6.105469 76.679688 6.105469 80.660156 C 6.105469 84.644531 8.558594 87.015625 11.59375 87.015625 C 14.625 87.015625 17.074219 84.644531 17.074219 80.660156 C 17.074219 76.679688 14.625 74.308594 11.59375 74.308594 Z M 11.59375 74.308594 "/>
<path style=" stroke:none;fill-rule:nonzero;fill:rgb(7.45098%,2.745098%,32.941176%);fill-opacity:1;" d="M 41.78125 90.328125 L 41.601562 87.242188 C 39.996094 89.613281 37.140625 90.863281 34.421875 90.863281 C 29.199219 90.863281 25.355469 86.480469 25.355469 80.664062 C 25.355469 74.847656 29.191406 70.460938 34.421875 70.464844 C 37.140625 70.464844 39.996094 71.726562 41.601562 74.085938 L 41.78125 71 L 46.464844 71 L 46.464844 90.328125 Z M 36.027344 74.308594 C 33.003906 74.308594 30.539062 76.679688 30.539062 80.664062 C 30.539062 84.644531 32.992188 87.015625 36.027344 87.015625 C 39.0625 87.015625 41.515625 84.644531 41.515625 80.664062 C 41.515625 76.6875 39.0625 74.324219 36.027344 74.308594 Z M 36.027344 74.308594 "/>
<path style=" stroke:none;fill-rule:nonzero;fill:rgb(7.45098%,2.745098%,32.941176%);fill-opacity:1;" d="M 64.574219 90.332031 L 64.574219 79.628906 C 64.574219 75.871094 63.28125 74.617188 60.914062 74.617188 C 58.460938 74.617188 55.785156 76.851562 55.78125 79.535156 L 55.78125 90.320312 L 50.609375 90.320312 L 50.609375 71 L 55.351562 71 L 55.574219 74.582031 C 56.867188 72.121094 59.769531 70.464844 62.710938 70.464844 C 67.84375 70.464844 69.765625 74.046875 69.765625 78.835938 L 69.765625 90.332031 Z M 64.574219 90.332031 "/>
<path style=" stroke:none;fill-rule:nonzero;fill:rgb(7.45098%,2.745098%,32.941176%);fill-opacity:1;" d="M 88.722656 90.335938 L 88.546875 87.246094 C 86.941406 89.617188 84.085938 90.871094 81.363281 90.871094 C 76.144531 90.871094 72.296875 86.484375 72.296875 80.667969 C 72.296875 74.851562 76.136719 70.46875 81.363281 70.46875 C 83.949219 70.46875 86.582031 71.542969 88.234375 73.648438 L 88.234375 63.492188 L 93.40625 63.492188 L 93.40625 90.335938 Z M 82.972656 74.324219 C 79.9375 74.324219 77.480469 76.695312 77.480469 80.679688 C 77.480469 84.660156 79.933594 87.027344 82.96875 87.03125 C 86.003906 87.035156 88.457031 84.660156 88.457031 80.679688 C 88.457031 76.695312 86.003906 74.324219 82.972656 74.324219 Z M 82.972656 74.324219 "/>
<path style=" stroke:none;fill-rule:nonzero;fill:rgb(7.45098%,2.745098%,32.941176%);fill-opacity:1;" d="M 112.855469 90.335938 L 112.675781 87.25 C 111.070312 89.621094 108.214844 90.875 105.496094 90.871094 C 100.273438 90.871094 96.429688 86.488281 96.429688 80.671875 C 96.429688 74.859375 100.265625 70.472656 105.496094 70.472656 C 108.214844 70.472656 111.070312 71.734375 112.675781 74.097656 L 112.855469 71.011719 L 117.550781 71.011719 L 117.550781 90.335938 Z M 107.101562 74.324219 C 104.066406 74.324219 101.613281 76.695312 101.613281 80.679688 C 101.613281 84.660156 104.066406 87.03125 107.101562 87.03125 C 110.136719 87.03125 112.589844 84.660156 112.589844 80.679688 C 112.589844 76.695312 110.136719 74.324219 107.101562 74.324219 Z M 107.101562 74.324219 "/>
<path style=" stroke:none;fill-rule:nonzero;fill:rgb(7.45098%,2.745098%,32.941176%);fill-opacity:1;" d="M 129.007812 90.964844 C 126.285156 90.945312 123.621094 90.1875 121.289062 88.773438 L 122.136719 85.183594 C 123.695312 86.121094 126.0625 87.332031 128.917969 87.332031 C 130.96875 87.332031 132.398438 86.707031 132.398438 85.09375 C 132.398438 83.707031 130.925781 83.214844 128.292969 82.589844 C 123.566406 81.558594 121.867188 79.054688 121.871094 76.324219 C 121.871094 73.292969 124.234375 70.421875 129.457031 70.421875 C 132.625 70.421875 135.390625 71.808594 136.003906 72.164062 L 135.164062 75.585938 C 133.480469 74.570312 131.558594 74.011719 129.589844 73.976562 C 127.492188 73.976562 126.464844 74.691406 126.464844 75.855469 C 126.464844 77.152344 127.804688 77.734375 129.855469 78.226562 C 134.941406 79.300781 136.992188 81.671875 136.992188 84.265625 C 136.992188 88.417969 133.960938 90.964844 129.007812 90.964844 Z M 129.007812 90.964844 "/>
<path style=" stroke:none;fill-rule:nonzero;fill:rgb(7.45098%,2.745098%,32.941176%);fill-opacity:1;" d="M 61.367188 4.136719 L 67.433594 4.136719 L 67.433594 16.765625 L 61.367188 16.765625 Z M 61.367188 4.136719 "/>
<path style=" stroke:none;fill-rule:nonzero;fill:rgb(7.45098%,2.745098%,32.941176%);fill-opacity:1;" d="M 61.367188 30.082031 L 67.433594 30.082031 L 67.433594 42.714844 L 61.367188 42.714844 Z M 61.367188 30.082031 "/>
<path style=" stroke:none;fill-rule:nonzero;fill:rgb(100%,79.215686%,0%);fill-opacity:1;" d="M 61.367188 20.457031 L 67.433594 20.457031 L 67.433594 26.414062 L 61.367188 26.414062 Z M 61.367188 20.457031 "/>
<path style=" stroke:none;fill-rule:nonzero;fill:rgb(7.45098%,2.745098%,32.941176%);fill-opacity:1;" d="M 51.621094 14.523438 L 57.6875 14.523438 L 57.6875 56.507812 L 51.621094 56.507812 Z M 51.621094 14.523438 "/>
<path style=" stroke:none;fill-rule:nonzero;fill:rgb(7.45098%,2.745098%,32.941176%);fill-opacity:1;" d="M 70.914062 40.503906 L 76.980469 40.503906 L 76.980469 53.136719 L 70.914062 53.136719 Z M 70.914062 40.503906 "/>
<path style=" stroke:none;fill-rule:nonzero;fill:rgb(7.45098%,2.745098%,32.941176%);fill-opacity:1;" d="M 70.914062 14.535156 L 76.980469 14.535156 L 76.980469 27.167969 L 70.914062 27.167969 Z M 70.914062 14.535156 "/>
<path style=" stroke:none;fill-rule:nonzero;fill:rgb(90.588235%,1.568627%,53.333333%);fill-opacity:1;" d="M 70.914062 30.855469 L 76.980469 30.855469 L 76.980469 36.816406 L 70.914062 36.816406 Z M 70.914062 30.855469 "/>
<path style=" stroke:none;fill-rule:nonzero;fill:rgb(7.45098%,2.745098%,32.941176%);fill-opacity:1;" d="M 80.453125 0.847656 L 86.519531 0.847656 L 86.519531 42.835938 L 80.453125 42.835938 Z M 80.453125 0.847656 "/>
</g>
</svg>
